<svg xmlns="http://www.w3.org/2000/svg" width="1500" height="226" viewBox="0 0 1500 226" version="1.1"><path d="M 711.368 6.368 C 707.402 10.335, 707 11.186, 707.004 15.618 C 707.011 24.595, 712.489 30, 721.582 30 C 735.906 30, 741.190 13.348, 729.657 4.552 C 727.045 2.560, 725.152 2, 721.024 2 C 716.115 2, 715.425 2.312, 711.368 6.368 M 2 9.362 C 2 11.517, 2.543 11.803, 7.750 12.392 C 19.122 13.679, 28.980 20.765, 31.864 29.725 C 34.486 37.871, 35.170 60.878, 34.711 125.477 C 34.382 171.584, 33.897 191.885, 33.040 195.262 C 30.099 206.862, 20.602 214.781, 8.462 215.755 C 2.482 216.235, 2 216.450, 2 218.637 L 2 221 95.385 221 L 188.770 221 189.358 215.750 C 189.682 212.863, 190.248 198.198, 190.617 183.162 L 191.287 155.823 188.979 156.162 C 186.966 156.457, 186.375 157.680, 184.351 165.743 C 175.449 201.211, 157.448 215, 120.049 215 C 106.177 215, 99.900 213.965, 91.842 210.349 C 84.424 207.020, 76.931 199.105, 74.143 191.652 C 70.598 182.177, 70 169.690, 70.008 105.289 C 70.015 42.797, 70.433 34.104, 73.769 27.074 C 77.654 18.888, 86.089 13.712, 97.784 12.338 C 102.462 11.788, 103.065 11.459, 102.801 9.606 C 102.500 7.500, 102.490 7.500, 52.250 7.241 L 2 6.982 2 9.362 M 1078.665 7.733 C 1078.381 8.192, 1068.031 34.652, 1055.663 66.534 C 1015.990 168.808, 1013.038 176.235, 1008.008 186.453 C 1002.402 197.842, 995.240 207.252, 989.072 211.333 C 986.765 212.860, 981.980 214.825, 978.439 215.698 C 973.403 216.941, 972 217.692, 972 219.144 C 972 220.917, 973.583 221, 1007.500 221 C 1041.921 221, 1043 220.941, 1043 219.067 C 1043 218.004, 1042.213 216.928, 1041.250 216.674 C 1040.287 216.421, 1037.252 215.626, 1034.503 214.908 C 1025.299 212.502, 1018 202.688, 1018 192.717 C 1018 187.961, 1021.943 175.135, 1029.288 156 L 1036.773 136.500 1071.116 136.500 L 1105.459 136.500 1115.669 161.838 C 1127.151 190.335, 1128.384 195.553, 1125.363 202.842 C 1122.749 209.150, 1117.050 213.324, 1108.891 214.907 C 1105.376 215.588, 1101.487 216.347, 1100.250 216.592 C 1098.824 216.875, 1098 217.764, 1098 219.019 C 1098 220.968, 1098.832 221, 1149.531 221 C 1195.055 221, 1201.132 220.820, 1201.655 219.457 C 1202.480 217.307, 1202.288 217.213, 1193.839 215.596 C 1183.820 213.679, 1179.941 211.941, 1175.278 207.278 C 1167.996 199.996, 1167.911 199.803, 1100.751 37.500 L 1088.337 7.500 1083.759 7.199 C 1081.241 7.033, 1078.949 7.274, 1078.665 7.733 M 1069.396 51.500 C 1068.936 52.600, 1062.184 70.150, 1054.391 90.500 L 1040.222 127.500 1055.611 127.775 C 1064.075 127.927, 1077.943 127.927, 1086.429 127.775 L 1101.858 127.500 1086.430 89.503 C 1077.945 68.605, 1070.829 51.055, 1070.618 50.503 C 1070.406 49.952, 1069.856 50.400, 1069.396 51.500 M 429.500 87.878 C 409.809 90.337, 408.481 90.633, 408.196 92.628 C 407.937 94.450, 408.539 94.854, 412.373 95.429 C 418.312 96.319, 422.945 99.586, 426 105.039 L 428.500 109.500 428.500 155.500 L 428.500 201.500 426.113 206.348 C 423.293 212.076, 419.628 214.571, 411.750 216.126 C 407.205 217.023, 406 217.652, 406 219.130 C 406 220.921, 407.478 221, 441 221 C 474.060 221, 476 220.900, 476 219.197 C 476 217.851, 474.275 216.838, 469.191 215.201 C 462.028 212.894, 458.072 209.721, 455.851 204.500 C 454.100 200.385, 453.410 142.021, 454.974 130.272 C 457.223 113.369, 463.179 103.499, 474.487 97.932 C 487.845 91.355, 502.646 93.247, 510.862 102.581 C 518.001 110.691, 518.500 114.410, 518.500 159.500 C 518.500 202.064, 518.247 204.371, 512.917 210.442 C 510.567 213.119, 508.412 214.246, 502.959 215.650 C 497.628 217.024, 496 217.859, 496 219.221 C 496 220.892, 498.120 221, 531 221 C 564.597 221, 566 220.925, 566 219.119 C 566 217.715, 564.822 216.941, 561.366 216.070 C 554.120 214.246, 549.406 211.392, 546.851 207.281 C 544.514 203.522, 544.498 203.291, 544.192 167.592 C 543.933 137.446, 544.145 130.389, 545.517 123.621 C 549.700 102.975, 560.197 93.594, 579.004 93.693 C 588.473 93.743, 595.656 96.612, 600.510 102.283 C 607.348 110.271, 608.923 120.963, 608.939 159.500 C 608.958 206.174, 606.886 212.806, 591.275 216.047 C 587.110 216.911, 586 217.548, 586 219.071 C 586 220.940, 587.095 221, 621 221 C 654.292 221, 656 220.910, 656 219.164 C 656 217.785, 654.570 216.922, 650.250 215.697 C 641.883 213.323, 638.183 210.667, 635.829 205.347 C 633.916 201.022, 633.763 198.173, 633.264 157.624 C 632.775 117.871, 632.578 114.070, 630.745 109 C 627.967 101.319, 618.608 92.123, 610.451 89.059 C 588.970 80.991, 564.958 86.304, 546.449 103.220 L 540.717 108.459 539.173 105.980 C 538.325 104.616, 534.662 100.532, 531.035 96.904 C 522.118 87.987, 516.255 85.670, 502.500 85.631 C 487.133 85.587, 474.556 90.267, 461.369 100.938 L 455.267 105.875 454.704 100.687 C 453.934 93.579, 451.977 84.973, 451.167 85.128 C 450.800 85.199, 441.050 86.437, 429.500 87.878 M 711 88.068 C 699.175 89.630, 689.163 90.928, 688.750 90.954 C 688.337 90.979, 688 91.868, 688 92.929 C 688 94.473, 689.147 95.095, 693.750 96.044 C 700.456 97.428, 705.676 102.048, 707.881 108.552 C 709.514 113.367, 710.366 181.805, 708.955 194.734 C 707.444 208.581, 703.410 213.735, 692.275 216.047 C 688.110 216.911, 687 217.548, 687 219.071 C 687 220.940, 688.095 221, 722 221 C 755.292 221, 757 220.910, 757 219.164 C 757 217.785, 755.570 216.922, 751.250 215.697 C 742.866 213.318, 739.193 210.671, 736.717 205.223 C 734.617 200.602, 734.562 199.256, 734.180 142.750 C 733.965 110.987, 733.499 85.052, 733.145 85.114 C 732.790 85.177, 722.825 86.507, 711 88.068 M 815.500 87.556 C 806.150 88.847, 796.587 90.177, 794.250 90.513 C 790.985 90.981, 790 91.555, 790 92.990 C 790 94.452, 791.210 95.109, 795.560 96.012 C 802.517 97.457, 807.236 101.424, 809.555 107.780 C 811.021 111.799, 811.345 117.627, 811.733 147 C 812.509 205.806, 810.803 212.616, 794.438 216.013 C 790.123 216.909, 789 217.540, 789 219.071 C 789 220.940, 790.095 221, 824 221 C 857.292 221, 859 220.910, 859 219.164 C 859 217.785, 857.570 216.922, 853.250 215.697 C 844.887 213.324, 841.196 210.669, 838.691 205.223 C 836.582 200.641, 836.517 199.383, 836.519 163 C 836.522 123.777, 837.035 117.825, 841.107 109.806 C 843.816 104.472, 849.679 99.104, 856 96.171 C 860.637 94.019, 862.991 93.610, 871 93.563 C 881.882 93.499, 888.393 95.712, 893.818 101.316 C 900.614 108.339, 901.944 117.688, 901.956 158.500 C 901.971 206.719, 900.132 212.755, 884.438 216.013 C 880.123 216.909, 879 217.540, 879 219.071 C 879 220.940, 880.095 221, 914 221 C 947.292 221, 949 220.910, 949 219.164 C 949 217.785, 947.570 216.922, 943.250 215.697 C 935.763 213.573, 931.522 210.866, 929.299 206.794 C 927.669 203.809, 927.447 199.276, 926.931 158.500 C 926.584 131.053, 925.950 112.307, 925.306 110.442 C 921.301 98.846, 911.157 90.414, 897 86.914 C 889.951 85.171, 874.088 85.165, 867 86.902 C 858.718 88.932, 848.172 94.132, 841.889 99.283 L 836.278 103.884 835.729 96.192 C 835.178 88.483, 834.345 84.910, 833.143 85.104 C 832.789 85.161, 824.850 86.264, 815.500 87.556 M 1248 88.075 C 1237.275 89.636, 1228.388 90.933, 1228.250 90.957 C 1228.112 90.981, 1228 91.870, 1228 92.933 C 1228 94.930, 1228.952 95.397, 1235.138 96.437 C 1239.544 97.178, 1243.573 100.957, 1246.397 107 C 1248.433 111.357, 1248.500 112.882, 1248.500 155 C 1248.500 203.523, 1248.342 204.920, 1242.154 211.044 C 1239.308 213.860, 1237.118 214.949, 1232.250 215.967 C 1227.287 217.004, 1226 217.657, 1226 219.137 C 1226 220.919, 1227.522 221, 1261 221 C 1294.597 221, 1296 220.925, 1296 219.119 C 1296 217.707, 1294.814 216.942, 1291.250 216.053 C 1284.106 214.271, 1278.528 210.606, 1276.380 206.284 C 1274.638 202.778, 1274.500 199.673, 1274.500 164 C 1274.500 130.790, 1274.737 124.578, 1276.227 118.789 C 1279.709 105.253, 1284.585 98.103, 1291.811 95.939 C 1298.181 94.030, 1302.882 95.876, 1310.953 103.456 C 1314.644 106.922, 1318.678 110.081, 1319.919 110.474 C 1326.436 112.543, 1334 107.073, 1334 100.291 C 1334 85.593, 1310.824 80.512, 1290.077 90.663 C 1284.776 93.256, 1275.890 101.107, 1272.944 105.799 C 1271.557 108.008, 1271.491 107.909, 1271.260 103.299 C 1270.922 96.550, 1268.949 84.977, 1268.160 85.118 C 1267.797 85.183, 1258.725 86.514, 1248 88.075 M 217 89.961 C 217 91.441, 218.044 92.176, 221.250 92.951 C 228.546 94.716, 234.196 98.297, 236.442 102.578 C 238.404 106.317, 238.526 108.594, 239.050 151.500 C 239.672 202.352, 239.626 202.032, 247.494 210.782 C 256.131 220.388, 267.955 224.434, 285.500 223.786 C 301.143 223.208, 313.579 218.419, 324.685 208.695 L 327.889 205.890 328.402 209.195 C 328.685 211.013, 329.199 215.141, 329.545 218.369 L 330.174 224.239 335.837 223.536 C 368.418 219.494, 373.495 218.538, 373.802 216.386 C 374.056 214.608, 373.444 214.167, 369.947 213.607 C 360.806 212.146, 355.937 206.919, 354.070 196.566 C 353.401 192.856, 353 171.401, 353 139.316 L 353 88 329.500 88 C 306.821 88, 306 88.068, 306 89.961 C 306 91.441, 307.044 92.176, 310.250 92.951 C 317.546 94.716, 323.196 98.297, 325.442 102.578 C 327.393 106.296, 327.516 108.418, 327.807 143.379 C 328.138 183.168, 327.532 191.044, 323.527 198.947 C 315.919 213.960, 294.585 220.414, 278.530 212.559 C 272.258 209.490, 269.032 205.759, 266.376 198.500 C 264.707 193.939, 264.517 188.864, 264.209 140.750 L 263.873 88 240.436 88 C 217.820 88, 217 88.069, 217 89.961 M 1364 89.972 C 1364 91.383, 1365.410 92.551, 1368.952 94.075 C 1377.477 97.742, 1383.704 105.703, 1411.285 148.198 L 1418.878 159.896 1401.972 180.802 C 1381.611 205.982, 1374.287 213.177, 1366.527 215.623 C 1362.491 216.895, 1361 217.855, 1361 219.183 C 1361 220.885, 1362.420 221, 1383.500 221 C 1404.689 221, 1406 220.893, 1406 219.158 C 1406 217.893, 1404.814 216.961, 1402.214 216.182 C 1394.740 213.943, 1391.695 208.717, 1394.132 202.311 C 1395.387 199.016, 1420.724 166.151, 1422.092 166.046 C 1422.829 165.989, 1441.985 195.972, 1444.878 201.710 C 1448.848 209.587, 1447.032 214.038, 1439.010 216.094 C 1435.314 217.041, 1434 217.853, 1434 219.189 C 1434 220.899, 1435.780 221, 1466 221 C 1496.660 221, 1498 220.921, 1498 219.119 C 1498 217.737, 1496.859 216.950, 1493.700 216.155 C 1487.926 214.701, 1481.908 210.174, 1476.525 203.234 C 1471.501 196.756, 1439 146.367, 1439 145.054 C 1439 143.329, 1466.856 109.328, 1472.474 104.196 C 1478.312 98.862, 1484.305 95.307, 1491.250 93.059 C 1493.862 92.213, 1495 91.261, 1495 89.922 C 1495 88.087, 1494.051 88, 1474 88 C 1454.361 88, 1453 88.118, 1453 89.820 C 1453 90.912, 1454.298 92.210, 1456.250 93.070 C 1458.037 93.856, 1460.130 95.827, 1460.900 97.450 C 1463.124 102.133, 1460.877 106.446, 1447.068 123.999 L 1434.636 139.802 1427.180 127.651 C 1418.697 113.826, 1414.002 104.469, 1414.001 101.385 C 1414 98.052, 1417.744 94.146, 1422.054 92.986 C 1424.946 92.207, 1426 91.399, 1426 89.961 C 1426 88.055, 1425.130 88, 1395 88 C 1364.812 88, 1364 88.052, 1364 89.972" stroke="none" fill="#fffcfc" fill-rule="evenodd"/><path d="" stroke="none" fill="#fcfcfc" fill-rule="evenodd"/></svg>